# xmcd
#
# Track frame offsets:
# 150
# 14908
# 38610
# 53382
# 68971
# 85477
# 101840
# 120017
# 147951
# 164402
# 180684
# 193791
# 222873
# 247582
# 276730
#
# Disc length: 3913 seconds
#
# Revision: 0
# Processed by: cddbd v1.4PL0 Copyright (c) Steve Scherf et al.
# Submitted via: Audion 3.0.2 (http://www.panic.com/audion/)
#
DISCID=d50f470f
DTITLE=KLGK - JAJAL
DYEAR=1900
DGENRE=
TTITLE0=KJN
TTITLE1=LK
TTITLE2=JNL
TTITLE3=KN
TTITLE4=K
TTITLE5=JNL
TTITLE6=NJK
TTITLE7=NL
TTITLE8=NJ
TTITLE9=LK
TTITLE10=JNLK
TTITLE11=JN
TTITLE12=LKN
TTITLE13=J
TTITLE14=LKN
EXTD=
EXTT0=
EXTT1=
EXTT2=
EXTT3=
EXTT4=
EXTT5=
EXTT6=
EXTT7=
EXTT8=
EXTT9=
EXTT10=
EXTT11=
EXTT12=
EXTT13=
EXTT14=
PLAYORDER=
